<?xml version="1.0" encoding="utf-8"?>
<!-- Generator: Adobe Illustrator 16.0.0, SVG Export Plug-In . SVG Version: 6.00 Build 0)  -->
<!DOCTYPE svg PUBLIC "-//W3C//DTD SVG 1.1//EN" "http://www.w3.org/Graphics/SVG/1.1/DTD/svg11.dtd">
<svg version="1.1" id="Layer_1" xmlns="http://www.w3.org/2000/svg" xmlns:xlink="http://www.w3.org/1999/xlink" x="0px" y="0px"
	 width="2048px" height="2048px" viewBox="0 0 2048 2048" enable-background="new 0 0 2048 2048" xml:space="preserve">
<g>
	<line fill="none" stroke="#000000" stroke-width="2" stroke-miterlimit="10" x1="2338.252" y1="2464" x2="-205.292" y2="2464"/>
	<line fill="none" stroke="#000000" stroke-width="2" stroke-miterlimit="10" x1="2311.354" y1="2514" x2="-232.19" y2="2514"/>
	<line fill="none" stroke="#000000" stroke-width="2" stroke-miterlimit="10" x1="2351.699" y1="2364" x2="-191.844" y2="2364"/>
	<line fill="none" stroke="#000000" stroke-width="2" stroke-miterlimit="10" x1="2438.21" y1="2414" x2="-332.148" y2="2414"/>
	<line fill="none" stroke="#000000" stroke-width="2" stroke-miterlimit="10" x1="2270.084" y1="2314" x2="-273.46" y2="2314"/>
	<line fill="none" stroke="#000000" stroke-width="2" stroke-miterlimit="10" x1="2234.482" y1="2214" x2="-309.062" y2="2214"/>
	<line fill="none" stroke="#000000" stroke-width="2" stroke-miterlimit="10" x1="2239.907" y1="2264" x2="-303.639" y2="2264"/>
	<line fill="none" stroke="#000000" stroke-width="2" stroke-miterlimit="10" x1="2247.932" y1="2114" x2="-295.613" y2="2114"/>
	<line fill="none" stroke="#000000" stroke-width="2" stroke-miterlimit="10" x1="2334.441" y1="2164" x2="-435.918" y2="2164"/>
	<line fill="none" stroke="#000000" stroke-width="2" stroke-miterlimit="10" x1="2257.324" y1="2064" x2="-286.221" y2="2064"/>
	<line fill="none" stroke="#000000" stroke-width="2" stroke-miterlimit="10" x1="2318.81" y1="1964" x2="-224.734" y2="1964"/>
	<line fill="none" stroke="#000000" stroke-width="2" stroke-miterlimit="10" x1="2291.914" y1="2014" x2="-251.632" y2="2014"/>
	<line fill="none" stroke="#000000" stroke-width="2" stroke-miterlimit="10" x1="2332.26" y1="1864" x2="-211.286" y2="1864"/>
	<line fill="none" stroke="#000000" stroke-width="2" stroke-miterlimit="10" x1="2418.77" y1="1914" x2="-351.591" y2="1914"/>
	<line fill="none" stroke="#000000" stroke-width="2" stroke-miterlimit="10" x1="2341.651" y1="1814" x2="-201.894" y2="1814"/>
	<line fill="none" stroke="#000000" stroke-width="2" stroke-miterlimit="10" x1="2244.934" y1="1714" x2="-298.611" y2="1714"/>
	<line fill="none" stroke="#000000" stroke-width="2" stroke-miterlimit="10" x1="2257.284" y1="1764" x2="-286.261" y2="1764"/>
	<line fill="none" stroke="#000000" stroke-width="2" stroke-miterlimit="10" x1="2258.383" y1="1614" x2="-285.163" y2="1614"/>
	<line fill="none" stroke="#000000" stroke-width="2" stroke-miterlimit="10" x1="2344.893" y1="1664" x2="-425.467" y2="1664"/>
	<line fill="none" stroke="#000000" stroke-width="2" stroke-miterlimit="10" x1="2240.071" y1="1564" x2="-303.474" y2="1564"/>
</g>
<g>
	<line fill="none" stroke="#000000" stroke-width="2" stroke-miterlimit="10" x1="2138.137" y1="1457" x2="-119.076" y2="1457"/>
	<line fill="none" stroke="#000000" stroke-width="2" stroke-miterlimit="10" x1="2114.267" y1="1507" x2="-142.946" y2="1507"/>
	<line fill="none" stroke="#000000" stroke-width="2" stroke-miterlimit="10" x1="2150.07" y1="1357" x2="-107.142" y2="1357"/>
	<line fill="none" stroke="#000000" stroke-width="2" stroke-miterlimit="10" x1="2226.842" y1="1407" x2="-231.652" y2="1407"/>
	<line fill="none" stroke="#000000" stroke-width="2" stroke-miterlimit="10" x1="2077.643" y1="1307" x2="-179.57" y2="1307"/>
	<line fill="none" stroke="#000000" stroke-width="2" stroke-miterlimit="10" x1="2046.049" y1="1207" x2="-211.164" y2="1207"/>
	<line fill="none" stroke="#000000" stroke-width="2" stroke-miterlimit="10" x1="2050.862" y1="1257" x2="-206.351" y2="1257"/>
	<line fill="none" stroke="#000000" stroke-width="2" stroke-miterlimit="10" x1="2057.983" y1="1107" x2="-199.229" y2="1107"/>
	<line fill="none" stroke="#000000" stroke-width="2" stroke-miterlimit="10" x1="2134.755" y1="1157" x2="-323.74" y2="1157"/>
	<line fill="none" stroke="#000000" stroke-width="2" stroke-miterlimit="10" x1="2066.318" y1="1057" x2="-190.895" y2="1057"/>
	<line fill="none" stroke="#000000" stroke-width="2" stroke-miterlimit="10" x1="2120.883" y1="957" x2="-136.33" y2="957"/>
	<line fill="none" stroke="#000000" stroke-width="2" stroke-miterlimit="10" x1="2097.015" y1="1007" x2="-160.199" y2="1007"/>
	<line fill="none" stroke="#000000" stroke-width="2" stroke-miterlimit="10" x1="2132.818" y1="857" x2="-124.395" y2="857"/>
	<line fill="none" stroke="#000000" stroke-width="2" stroke-miterlimit="10" x1="2209.59" y1="907" x2="-248.905" y2="907"/>
	<line fill="none" stroke="#000000" stroke-width="2" stroke-miterlimit="10" x1="2141.153" y1="807" x2="-116.06" y2="807"/>
	<line fill="none" stroke="#000000" stroke-width="2" stroke-miterlimit="10" x1="2055.323" y1="707" x2="-201.89" y2="707"/>
	<line fill="none" stroke="#000000" stroke-width="2" stroke-miterlimit="10" x1="2066.283" y1="757" x2="-190.93" y2="757"/>
	<line fill="none" stroke="#000000" stroke-width="2" stroke-miterlimit="10" x1="2067.258" y1="607" x2="-189.955" y2="607"/>
	<line fill="none" stroke="#000000" stroke-width="2" stroke-miterlimit="10" x1="2144.029" y1="657" x2="-314.465" y2="657"/>
	<line fill="none" stroke="#000000" stroke-width="2" stroke-miterlimit="10" x1="2051.008" y1="557" x2="-206.205" y2="557"/>
</g>
<g>
	
		<line fill="none" stroke="#000000" stroke-width="2" stroke-miterlimit="10" x1="1910.935" y1="-261.735" x2="338.908" y2="2461.096"/>
	
		<line fill="none" stroke="#000000" stroke-width="2" stroke-miterlimit="10" x1="1937.612" y1="-207.94" x2="365.586" y2="2514.891"/>
	
		<line fill="none" stroke="#000000" stroke-width="2" stroke-miterlimit="10" x1="1832.644" y1="-326.13" x2="260.617" y2="2396.701"/>
	
		<line fill="none" stroke="#000000" stroke-width="2" stroke-miterlimit="10" x1="1929.412" y1="-393.738" x2="217.204" y2="2571.896"/>
	
		<line fill="none" stroke="#000000" stroke-width="2" stroke-miterlimit="10" x1="1738.9" y1="-263.761" x2="166.873" y2="2459.071"/>
	
		<line fill="none" stroke="#000000" stroke-width="2" stroke-miterlimit="10" x1="1641.709" y1="-295.421" x2="69.682" y2="2427.409"/>
	
		<line fill="none" stroke="#000000" stroke-width="2" stroke-miterlimit="10" x1="1688.362" y1="-276.228" x2="116.336" y2="2446.603"/>
	
		<line fill="none" stroke="#000000" stroke-width="2" stroke-miterlimit="10" x1="1563.417" y1="-359.816" x2="-8.608" y2="2363.014"/>
	
		<line fill="none" stroke="#000000" stroke-width="2" stroke-miterlimit="10" x1="1660.186" y1="-427.426" x2="-52.021" y2="2538.207"/>
	
		<line fill="none" stroke="#000000" stroke-width="2" stroke-miterlimit="10" x1="1525.921" y1="-394.871" x2="-46.104" y2="2327.959"/>
	
		<line fill="none" stroke="#000000" stroke-width="2" stroke-miterlimit="10" x1="1477.32" y1="-510.694" x2="-94.706" y2="2212.138"/>
	
		<line fill="none" stroke="#000000" stroke-width="2" stroke-miterlimit="10" x1="1503.998" y1="-456.901" x2="-68.029" y2="2265.932"/>
	
		<line fill="none" stroke="#000000" stroke-width="2" stroke-miterlimit="10" x1="1399.031" y1="-575.091" x2="-172.997" y2="2147.742"/>
	
		<line fill="none" stroke="#000000" stroke-width="2" stroke-miterlimit="10" x1="1495.799" y1="-642.699" x2="-216.41" y2="2322.937"/>
	
		<line fill="none" stroke="#000000" stroke-width="2" stroke-miterlimit="10" x1="1361.534" y1="-610.145" x2="-210.493" y2="2112.687"/>
	
		<line fill="none" stroke="#000000" stroke-width="2" stroke-miterlimit="10" x1="1215.156" y1="-556.61" x2="-356.871" y2="2166.221"/>
	
		<line fill="none" stroke="#000000" stroke-width="2" stroke-miterlimit="10" x1="1266.089" y1="-544.83" x2="-305.938" y2="2178.001"/>
	
		<line fill="none" stroke="#000000" stroke-width="2" stroke-miterlimit="10" x1="1136.863" y1="-621.006" x2="-435.162" y2="2101.825"/>
	
		<line fill="none" stroke="#000000" stroke-width="2" stroke-miterlimit="10" x1="1233.633" y1="-688.614" x2="-478.575" y2="2277.021"/>
	
		<line fill="none" stroke="#000000" stroke-width="2" stroke-miterlimit="10" x1="1082.246" y1="-626.404" x2="-489.78" y2="2096.427"/>
</g>
<g>
	
		<line fill="none" stroke="#000000" stroke-width="2" stroke-miterlimit="10" x1="750.267" y1="-636.775" x2="2249.916" y2="1960.69"/>
	
		<line fill="none" stroke="#000000" stroke-width="2" stroke-miterlimit="10" x1="809.427" y1="-634.307" x2="2309.076" y2="1963.158"/>
	
		<line fill="none" stroke="#000000" stroke-width="2" stroke-miterlimit="10" x1="655.736" y1="-600.508" x2="2155.385" y2="1996.956"/>
	
		<line fill="none" stroke="#000000" stroke-width="2" stroke-miterlimit="10" x1="648.032" y1="-713.852" x2="2281.408" y2="2115.235"/>
	
		<line fill="none" stroke="#000000" stroke-width="2" stroke-miterlimit="10" x1="660.555" y1="-492.161" x2="2160.205" y2="2105.305"/>
	
		<line fill="none" stroke="#000000" stroke-width="2" stroke-miterlimit="10" x1="584.053" y1="-424.666" x2="2083.701" y2="2172.798"/>
	
		<line fill="none" stroke="#000000" stroke-width="2" stroke-miterlimit="10" x1="624.156" y1="-455.206" x2="2123.805" y2="2142.259"/>
	
		<line fill="none" stroke="#000000" stroke-width="2" stroke-miterlimit="10" x1="489.521" y1="-388.398" x2="1989.172" y2="2209.066"/>
	
		<line fill="none" stroke="#000000" stroke-width="2" stroke-miterlimit="10" x1="481.816" y1="-501.744" x2="2115.194" y2="2327.346"/>
	
		<line fill="none" stroke="#000000" stroke-width="2" stroke-miterlimit="10" x1="440.683" y1="-372.991" x2="1940.33" y2="2224.473"/>
	
		<line fill="none" stroke="#000000" stroke-width="2" stroke-miterlimit="10" x1="317.827" y1="-385.781" x2="1817.477" y2="2211.684"/>
	
		<line fill="none" stroke="#000000" stroke-width="2" stroke-miterlimit="10" x1="376.986" y1="-383.316" x2="1876.637" y2="2214.152"/>
	
		<line fill="none" stroke="#000000" stroke-width="2" stroke-miterlimit="10" x1="223.295" y1="-349.516" x2="1722.945" y2="2247.949"/>
	
		<line fill="none" stroke="#000000" stroke-width="2" stroke-miterlimit="10" x1="215.59" y1="-462.861" x2="1848.969" y2="2366.229"/>
	
		<line fill="none" stroke="#000000" stroke-width="2" stroke-miterlimit="10" x1="174.457" y1="-334.107" x2="1674.106" y2="2263.359"/>
	
		<line fill="none" stroke="#000000" stroke-width="2" stroke-miterlimit="10" x1="144.877" y1="-185.34" x2="1644.526" y2="2412.126"/>
	
		<line fill="none" stroke="#000000" stroke-width="2" stroke-miterlimit="10" x1="180.897" y1="-222.951" x2="1680.547" y2="2374.515"/>
	
		<line fill="none" stroke="#000000" stroke-width="2" stroke-miterlimit="10" x1="50.346" y1="-149.072" x2="1549.996" y2="2448.393"/>
	
		<line fill="none" stroke="#000000" stroke-width="2" stroke-miterlimit="10" x1="42.642" y1="-262.417" x2="1676.019" y2="2566.671"/>
	
		<line fill="none" stroke="#000000" stroke-width="2" stroke-miterlimit="10" x1="17.841" y1="-105.373" x2="1517.49" y2="2492.092"/>
</g>
<g>
	
		<line fill="none" stroke="#000000" stroke-width="2" stroke-miterlimit="10" x1="-249.087" y1="-354.966" x2="1372.604" y2="2453.884"/>
	
		<line fill="none" stroke="#000000" stroke-width="2" stroke-miterlimit="10" x1="-188.636" y1="-350.263" x2="1433.056" y2="2458.587"/>
	
		<line fill="none" stroke="#000000" stroke-width="2" stroke-miterlimit="10" x1="-344.263" y1="-319.816" x2="1277.429" y2="2489.033"/>
	
		<line fill="none" stroke="#000000" stroke-width="2" stroke-miterlimit="10" x1="-356.119" y1="-440.35" x2="1410.184" y2="2618.971"/>
	
		<line fill="none" stroke="#000000" stroke-width="2" stroke-miterlimit="10" x1="-335.528" y1="-204.687" x2="1286.164" y2="2604.164"/>
	
		<line fill="none" stroke="#000000" stroke-width="2" stroke-miterlimit="10" x1="-411.208" y1="-135.769" x2="1210.483" y2="2673.08"/>
	
		<line fill="none" stroke="#000000" stroke-width="2" stroke-miterlimit="10" x1="-371.365" y1="-166.759" x2="1250.326" y2="2642.09"/>
	
		<line fill="none" stroke="#000000" stroke-width="2" stroke-miterlimit="10" x1="-506.385" y1="-100.618" x2="1115.307" y2="2708.23"/>
	
		<line fill="none" stroke="#000000" stroke-width="2" stroke-miterlimit="10" x1="-518.241" y1="-221.153" x2="1248.063" y2="2838.17"/>
	
		<line fill="none" stroke="#000000" stroke-width="2" stroke-miterlimit="10" x1="-555.674" y1="-85.991" x2="1066.016" y2="2722.857"/>
	
		<line fill="none" stroke="#000000" stroke-width="2" stroke-miterlimit="10" x1="-681.48" y1="-103.892" x2="940.212" y2="2704.958"/>
	
		<line fill="none" stroke="#000000" stroke-width="2" stroke-miterlimit="10" x1="-621.031" y1="-99.191" x2="1000.663" y2="2709.662"/>
	
		<line fill="none" stroke="#000000" stroke-width="2" stroke-miterlimit="10" x1="-776.657" y1="-68.744" x2="845.036" y2="2740.105"/>
	
		<line fill="none" stroke="#000000" stroke-width="2" stroke-miterlimit="10" x1="-788.514" y1="-189.278" x2="977.791" y2="2870.045"/>
	
		<line fill="none" stroke="#000000" stroke-width="2" stroke-miterlimit="10" x1="-825.946" y1="-54.115" x2="795.746" y2="2754.735"/>
	
		<line fill="none" stroke="#000000" stroke-width="2" stroke-miterlimit="10" x1="-850.886" y1="102.689" x2="770.806" y2="2911.539"/>
	
		<line fill="none" stroke="#000000" stroke-width="2" stroke-miterlimit="10" x1="-815.458" y1="64.052" x2="806.235" y2="2872.902"/>
	
		<line fill="none" stroke="#000000" stroke-width="2" stroke-miterlimit="10" x1="-946.062" y1="137.84" x2="675.631" y2="2946.689"/>
	
		<line fill="none" stroke="#000000" stroke-width="2" stroke-miterlimit="10" x1="-957.917" y1="17.306" x2="808.386" y2="3076.627"/>
	
		<line fill="none" stroke="#000000" stroke-width="2" stroke-miterlimit="10" x1="-977.688" y1="183.06" x2="644.003" y2="2991.909"/>
</g>
<g>
	
		<line fill="none" stroke="#000000" stroke-width="2" stroke-miterlimit="10" x1="2916.889" y1="8.134" x2="1410.382" y2="2617.483"/>
	
		<line fill="none" stroke="#000000" stroke-width="2" stroke-miterlimit="10" x1="2944.26" y1="60.729" x2="1437.753" y2="2670.078"/>
	
		<line fill="none" stroke="#000000" stroke-width="2" stroke-miterlimit="10" x1="2838.252" y1="-55.661" x2="1331.745" y2="2553.688"/>
	
		<line fill="none" stroke="#000000" stroke-width="2" stroke-miterlimit="10" x1="2932.791" y1="-119.409" x2="1291.946" y2="2722.622"/>
	
		<line fill="none" stroke="#000000" stroke-width="2" stroke-miterlimit="10" x1="2746.609" y1="3.067" x2="1240.103" y2="2612.416"/>
	
		<line fill="none" stroke="#000000" stroke-width="2" stroke-miterlimit="10" x1="2649.86" y1="-29.358" x2="1143.354" y2="2579.99"/>
	
		<line fill="none" stroke="#000000" stroke-width="2" stroke-miterlimit="10" x1="2696.375" y1="-9.922" x2="1189.868" y2="2599.426"/>
	
		<line fill="none" stroke="#000000" stroke-width="2" stroke-miterlimit="10" x1="2571.222" y1="-93.153" x2="1064.717" y2="2516.194"/>
	
		<line fill="none" stroke="#000000" stroke-width="2" stroke-miterlimit="10" x1="2665.764" y1="-156.902" x2="1024.917" y2="2685.129"/>
	
		<line fill="none" stroke="#000000" stroke-width="2" stroke-miterlimit="10" x1="2533.484" y1="-127.789" x2="1026.979" y2="2481.559"/>
	
		<line fill="none" stroke="#000000" stroke-width="2" stroke-miterlimit="10" x1="2483.301" y1="-240.868" x2="976.794" y2="2368.481"/>
	
		<line fill="none" stroke="#000000" stroke-width="2" stroke-miterlimit="10" x1="2510.671" y1="-188.275" x2="1004.163" y2="2421.076"/>
	
		<line fill="none" stroke="#000000" stroke-width="2" stroke-miterlimit="10" x1="2404.663" y1="-304.665" x2="898.156" y2="2304.686"/>
	
		<line fill="none" stroke="#000000" stroke-width="2" stroke-miterlimit="10" x1="2499.203" y1="-368.413" x2="858.357" y2="2473.62"/>
	
		<line fill="none" stroke="#000000" stroke-width="2" stroke-miterlimit="10" x1="2366.925" y1="-339.299" x2="860.418" y2="2270.05"/>
	
		<line fill="none" stroke="#000000" stroke-width="2" stroke-miterlimit="10" x1="2223.038" y1="-290.081" x2="716.532" y2="2319.269"/>
	
		<line fill="none" stroke="#000000" stroke-width="2" stroke-miterlimit="10" x1="2273.654" y1="-277.75" x2="767.146" y2="2331.601"/>
	
		<line fill="none" stroke="#000000" stroke-width="2" stroke-miterlimit="10" x1="2144.4" y1="-353.876" x2="637.894" y2="2255.473"/>
	
		<line fill="none" stroke="#000000" stroke-width="2" stroke-miterlimit="10" x1="2238.941" y1="-417.625" x2="598.095" y2="2424.407"/>
	
		<line fill="none" stroke="#000000" stroke-width="2" stroke-miterlimit="10" x1="2090.254" y1="-360.091" x2="583.747" y2="2249.258"/>
</g>
<g>
	
		<line fill="none" stroke="#000000" stroke-width="2" stroke-miterlimit="10" x1="2308.854" y1="454.877" x2="-186.603" y2="454.877"/>
	
		<line fill="none" stroke="#000000" stroke-width="2" stroke-miterlimit="10" x1="2282.465" y1="504.877" x2="-212.992" y2="504.877"/>
	
		<line fill="none" stroke="#000000" stroke-width="2" stroke-miterlimit="10" x1="2322.047" y1="354.877" x2="-173.408" y2="354.877"/>
	
		<line fill="none" stroke="#000000" stroke-width="2" stroke-miterlimit="10" x1="2406.922" y1="404.877" x2="-311.06" y2="404.877"/>
	
		<line fill="none" stroke="#000000" stroke-width="2" stroke-miterlimit="10" x1="2241.975" y1="304.877" x2="-253.481" y2="304.877"/>
	
		<line fill="none" stroke="#000000" stroke-width="2" stroke-miterlimit="10" x1="2207.047" y1="204.877" x2="-288.41" y2="204.877"/>
	
		<line fill="none" stroke="#000000" stroke-width="2" stroke-miterlimit="10" x1="2212.368" y1="254.877" x2="-283.089" y2="254.877"/>
	
		<line fill="none" stroke="#000000" stroke-width="2" stroke-miterlimit="10" x1="2220.241" y1="104.877" x2="-275.216" y2="104.877"/>
	
		<line fill="none" stroke="#000000" stroke-width="2" stroke-miterlimit="10" x1="2305.115" y1="154.877" x2="-412.868" y2="154.877"/>
	
		<line fill="none" stroke="#000000" stroke-width="2" stroke-miterlimit="10" x1="2229.455" y1="54.877" x2="-266.001" y2="54.877"/>
	
		<line fill="none" stroke="#000000" stroke-width="2" stroke-miterlimit="10" x1="2289.779" y1="-45.123" x2="-205.677" y2="-45.123"/>
	<line fill="none" stroke="#000000" stroke-width="2" stroke-miterlimit="10" x1="2263.392" y1="4.877" x2="-232.065" y2="4.877"/>
	
		<line fill="none" stroke="#000000" stroke-width="2" stroke-miterlimit="10" x1="2302.975" y1="-145.123" x2="-192.482" y2="-145.123"/>
	
		<line fill="none" stroke="#000000" stroke-width="2" stroke-miterlimit="10" x1="2387.849" y1="-95.123" x2="-330.135" y2="-95.123"/>
	
		<line fill="none" stroke="#000000" stroke-width="2" stroke-miterlimit="10" x1="2312.189" y1="-195.123" x2="-183.268" y2="-195.123"/>
	
		<line fill="none" stroke="#000000" stroke-width="2" stroke-miterlimit="10" x1="2217.3" y1="-295.123" x2="-278.157" y2="-295.123"/>
	
		<line fill="none" stroke="#000000" stroke-width="2" stroke-miterlimit="10" x1="2229.417" y1="-245.123" x2="-266.041" y2="-245.123"/>
	
		<line fill="none" stroke="#000000" stroke-width="2" stroke-miterlimit="10" x1="2230.494" y1="-395.123" x2="-264.962" y2="-395.123"/>
	
		<line fill="none" stroke="#000000" stroke-width="2" stroke-miterlimit="10" x1="2315.369" y1="-345.123" x2="-402.614" y2="-345.123"/>
	
		<line fill="none" stroke="#000000" stroke-width="2" stroke-miterlimit="10" x1="2212.529" y1="-445.123" x2="-282.928" y2="-445.123"/>
</g>
<g>
	
		<line fill="none" stroke="#000000" stroke-width="2" stroke-miterlimit="10" x1="1577.893" y1="-1211.228" x2="3199.585" y2="1597.622"/>
	
		<line fill="none" stroke="#000000" stroke-width="2" stroke-miterlimit="10" x1="1638.344" y1="-1206.524" x2="3260.036" y2="1602.325"/>
	
		<line fill="none" stroke="#000000" stroke-width="2" stroke-miterlimit="10" x1="1482.717" y1="-1176.078" x2="3104.409" y2="1632.771"/>
	
		<line fill="none" stroke="#000000" stroke-width="2" stroke-miterlimit="10" x1="1470.861" y1="-1296.612" x2="3237.164" y2="1762.709"/>
	
		<line fill="none" stroke="#000000" stroke-width="2" stroke-miterlimit="10" x1="1491.452" y1="-1060.948" x2="3113.145" y2="1747.902"/>
	
		<line fill="none" stroke="#000000" stroke-width="2" stroke-miterlimit="10" x1="1415.772" y1="-992.03" x2="3037.464" y2="1816.818"/>
	
		<line fill="none" stroke="#000000" stroke-width="2" stroke-miterlimit="10" x1="1455.615" y1="-1023.021" x2="3077.307" y2="1785.828"/>
	
		<line fill="none" stroke="#000000" stroke-width="2" stroke-miterlimit="10" x1="1320.596" y1="-956.879" x2="2942.287" y2="1851.969"/>
	
		<line fill="none" stroke="#000000" stroke-width="2" stroke-miterlimit="10" x1="1308.74" y1="-1077.415" x2="3075.043" y2="1981.908"/>
	
		<line fill="none" stroke="#000000" stroke-width="2" stroke-miterlimit="10" x1="1271.307" y1="-942.253" x2="2892.996" y2="1866.596"/>
	
		<line fill="none" stroke="#000000" stroke-width="2" stroke-miterlimit="10" x1="1145.5" y1="-960.154" x2="2767.192" y2="1848.696"/>
	
		<line fill="none" stroke="#000000" stroke-width="2" stroke-miterlimit="10" x1="1205.949" y1="-955.453" x2="2827.644" y2="1853.4"/>
	
		<line fill="none" stroke="#000000" stroke-width="2" stroke-miterlimit="10" x1="1050.323" y1="-925.005" x2="2672.016" y2="1883.844"/>
	
		<line fill="none" stroke="#000000" stroke-width="2" stroke-miterlimit="10" x1="1038.467" y1="-1045.54" x2="2804.771" y2="2013.783"/>
	
		<line fill="none" stroke="#000000" stroke-width="2" stroke-miterlimit="10" x1="1001.034" y1="-910.377" x2="2622.727" y2="1898.474"/>
	
		<line fill="none" stroke="#000000" stroke-width="2" stroke-miterlimit="10" x1="976.095" y1="-753.572" x2="2597.787" y2="2055.277"/>
	
		<line fill="none" stroke="#000000" stroke-width="2" stroke-miterlimit="10" x1="1011.523" y1="-792.209" x2="2633.215" y2="2016.641"/>
	
		<line fill="none" stroke="#000000" stroke-width="2" stroke-miterlimit="10" x1="880.918" y1="-718.421" x2="2502.611" y2="2090.428"/>
	
		<line fill="none" stroke="#000000" stroke-width="2" stroke-miterlimit="10" x1="869.063" y1="-838.956" x2="2635.366" y2="2220.365"/>
	
		<line fill="none" stroke="#000000" stroke-width="2" stroke-miterlimit="10" x1="849.292" y1="-673.202" x2="2470.984" y2="2135.647"/>
</g>
<g>
	
		<line fill="none" stroke="#000000" stroke-width="2" stroke-miterlimit="10" x1="3911.078" y1="287.786" x2="2404.571" y2="2897.135"/>
	
		<line fill="none" stroke="#000000" stroke-width="2" stroke-miterlimit="10" x1="3938.449" y1="340.38" x2="2431.942" y2="2949.729"/>
	
		<line fill="none" stroke="#000000" stroke-width="2" stroke-miterlimit="10" x1="3832.441" y1="223.991" x2="2325.935" y2="2833.339"/>
	
		<line fill="none" stroke="#000000" stroke-width="2" stroke-miterlimit="10" x1="3926.98" y1="160.242" x2="2286.136" y2="3002.273"/>
	
		<line fill="none" stroke="#000000" stroke-width="2" stroke-miterlimit="10" x1="3740.799" y1="282.719" x2="2234.292" y2="2892.067"/>
	
		<line fill="none" stroke="#000000" stroke-width="2" stroke-miterlimit="10" x1="3644.05" y1="250.293" x2="2137.543" y2="2859.642"/>
	
		<line fill="none" stroke="#000000" stroke-width="2" stroke-miterlimit="10" x1="3690.564" y1="269.729" x2="2184.058" y2="2879.077"/>
	
		<line fill="none" stroke="#000000" stroke-width="2" stroke-miterlimit="10" x1="3565.411" y1="186.498" x2="2058.906" y2="2795.846"/>
	
		<line fill="none" stroke="#000000" stroke-width="2" stroke-miterlimit="10" x1="3659.953" y1="122.749" x2="2019.106" y2="2964.78"/>
	
		<line fill="none" stroke="#000000" stroke-width="2" stroke-miterlimit="10" x1="3527.674" y1="151.862" x2="2021.168" y2="2761.21"/>
	
		<line fill="none" stroke="#000000" stroke-width="2" stroke-miterlimit="10" x1="3477.49" y1="38.783" x2="1970.983" y2="2648.133"/>
	
		<line fill="none" stroke="#000000" stroke-width="2" stroke-miterlimit="10" x1="3504.86" y1="91.376" x2="1998.353" y2="2700.728"/>
	
		<line fill="none" stroke="#000000" stroke-width="2" stroke-miterlimit="10" x1="3398.853" y1="-25.014" x2="1892.346" y2="2584.337"/>
	
		<line fill="none" stroke="#000000" stroke-width="2" stroke-miterlimit="10" x1="3493.393" y1="-88.762" x2="1852.547" y2="2753.271"/>
	
		<line fill="none" stroke="#000000" stroke-width="2" stroke-miterlimit="10" x1="3361.114" y1="-59.648" x2="1854.607" y2="2549.701"/>
	
		<line fill="none" stroke="#000000" stroke-width="2" stroke-miterlimit="10" x1="3217.228" y1="-10.43" x2="1710.721" y2="2598.92"/>
	
		<line fill="none" stroke="#000000" stroke-width="2" stroke-miterlimit="10" x1="3267.844" y1="1.902" x2="1761.336" y2="2611.252"/>
	
		<line fill="none" stroke="#000000" stroke-width="2" stroke-miterlimit="10" x1="3138.59" y1="-74.225" x2="1632.083" y2="2535.124"/>
	
		<line fill="none" stroke="#000000" stroke-width="2" stroke-miterlimit="10" x1="3233.131" y1="-137.973" x2="1592.284" y2="2704.059"/>
	
		<line fill="none" stroke="#000000" stroke-width="2" stroke-miterlimit="10" x1="3084.443" y1="-80.44" x2="1577.937" y2="2528.909"/>
</g>
<g>
	
		<line fill="none" stroke="#000000" stroke-width="2" stroke-miterlimit="10" x1="770.52" y1="-293.643" x2="-735.987" y2="2315.706"/>
	
		<line fill="none" stroke="#000000" stroke-width="2" stroke-miterlimit="10" x1="797.891" y1="-241.049" x2="-708.616" y2="2368.301"/>
	
		<line fill="none" stroke="#000000" stroke-width="2" stroke-miterlimit="10" x1="691.883" y1="-357.438" x2="-814.624" y2="2251.91"/>
	
		<line fill="none" stroke="#000000" stroke-width="2" stroke-miterlimit="10" x1="786.422" y1="-421.187" x2="-854.422" y2="2420.845"/>
	
		<line fill="none" stroke="#000000" stroke-width="2" stroke-miterlimit="10" x1="600.241" y1="-298.71" x2="-906.266" y2="2310.639"/>
	
		<line fill="none" stroke="#000000" stroke-width="2" stroke-miterlimit="10" x1="503.492" y1="-331.135" x2="-1003.015" y2="2278.213"/>
	<line fill="none" stroke="#000000" stroke-width="2" stroke-miterlimit="10" x1="550.006" y1="-311.7" x2="-956.5" y2="2297.648"/>
	
		<line fill="none" stroke="#000000" stroke-width="2" stroke-miterlimit="10" x1="424.853" y1="-394.931" x2="-1081.652" y2="2214.417"/>
	
		<line fill="none" stroke="#000000" stroke-width="2" stroke-miterlimit="10" x1="519.395" y1="-458.68" x2="-1121.452" y2="2383.352"/>
	
		<line fill="none" stroke="#000000" stroke-width="2" stroke-miterlimit="10" x1="387.116" y1="-429.566" x2="-1119.39" y2="2179.781"/>
	
		<line fill="none" stroke="#000000" stroke-width="2" stroke-miterlimit="10" x1="336.932" y1="-542.646" x2="-1169.575" y2="2066.704"/>
	
		<line fill="none" stroke="#000000" stroke-width="2" stroke-miterlimit="10" x1="364.302" y1="-490.053" x2="-1142.206" y2="2119.299"/>
	
		<line fill="none" stroke="#000000" stroke-width="2" stroke-miterlimit="10" x1="258.294" y1="-606.442" x2="-1248.212" y2="2002.908"/>
	
		<line fill="none" stroke="#000000" stroke-width="2" stroke-miterlimit="10" x1="352.834" y1="-670.19" x2="-1288.011" y2="2171.843"/>
	
		<line fill="none" stroke="#000000" stroke-width="2" stroke-miterlimit="10" x1="220.556" y1="-641.077" x2="-1285.951" y2="1968.272"/>
	
		<line fill="none" stroke="#000000" stroke-width="2" stroke-miterlimit="10" x1="76.669" y1="-591.858" x2="-1429.837" y2="2017.491"/>
	
		<line fill="none" stroke="#000000" stroke-width="2" stroke-miterlimit="10" x1="127.286" y1="-579.527" x2="-1379.222" y2="2029.823"/>
	
		<line fill="none" stroke="#000000" stroke-width="2" stroke-miterlimit="10" x1="-1.968" y1="-655.654" x2="-1508.475" y2="1953.695"/>
	
		<line fill="none" stroke="#000000" stroke-width="2" stroke-miterlimit="10" x1="92.573" y1="-719.402" x2="-1548.274" y2="2122.63"/>
	
		<line fill="none" stroke="#000000" stroke-width="2" stroke-miterlimit="10" x1="-56.115" y1="-661.869" x2="-1562.622" y2="1947.48"/>
</g>
<g>
	
		<line fill="none" stroke="#000000" stroke-width="2" stroke-miterlimit="10" x1="-1251.993" y1="-91.847" x2="369.699" y2="2717.003"/>
	
		<line fill="none" stroke="#000000" stroke-width="2" stroke-miterlimit="10" x1="-1191.542" y1="-87.144" x2="430.15" y2="2721.706"/>
	
		<line fill="none" stroke="#000000" stroke-width="2" stroke-miterlimit="10" x1="-1347.168" y1="-56.697" x2="274.523" y2="2752.152"/>
	
		<line fill="none" stroke="#000000" stroke-width="2" stroke-miterlimit="10" x1="-1359.024" y1="-177.231" x2="407.278" y2="2882.09"/>
	
		<line fill="none" stroke="#000000" stroke-width="2" stroke-miterlimit="10" x1="-1338.434" y1="58.433" x2="283.259" y2="2867.283"/>
	
		<line fill="none" stroke="#000000" stroke-width="2" stroke-miterlimit="10" x1="-1414.113" y1="127.351" x2="207.578" y2="2936.199"/>
	
		<line fill="none" stroke="#000000" stroke-width="2" stroke-miterlimit="10" x1="-1374.271" y1="96.36" x2="247.421" y2="2905.209"/>
	
		<line fill="none" stroke="#000000" stroke-width="2" stroke-miterlimit="10" x1="-1509.29" y1="162.501" x2="112.401" y2="2971.35"/>
	
		<line fill="none" stroke="#000000" stroke-width="2" stroke-miterlimit="10" x1="-1521.146" y1="41.966" x2="245.157" y2="3101.289"/>
	
		<line fill="none" stroke="#000000" stroke-width="2" stroke-miterlimit="10" x1="-1558.579" y1="177.128" x2="63.11" y2="2985.977"/>
	
		<line fill="none" stroke="#000000" stroke-width="2" stroke-miterlimit="10" x1="-1684.385" y1="159.227" x2="-62.693" y2="2968.077"/>
	
		<line fill="none" stroke="#000000" stroke-width="2" stroke-miterlimit="10" x1="-1623.936" y1="163.928" x2="-2.242" y2="2972.781"/>
	
		<line fill="none" stroke="#000000" stroke-width="2" stroke-miterlimit="10" x1="-1779.563" y1="194.375" x2="-157.87" y2="3003.225"/>
	
		<line fill="none" stroke="#000000" stroke-width="2" stroke-miterlimit="10" x1="-1791.419" y1="73.841" x2="-25.114" y2="3133.164"/>
	
		<line fill="none" stroke="#000000" stroke-width="2" stroke-miterlimit="10" x1="-1828.852" y1="209.004" x2="-207.159" y2="3017.854"/>
	
		<line fill="none" stroke="#000000" stroke-width="2" stroke-miterlimit="10" x1="-1853.791" y1="365.809" x2="-232.099" y2="3174.658"/>
	
		<line fill="none" stroke="#000000" stroke-width="2" stroke-miterlimit="10" x1="-1818.363" y1="327.171" x2="-196.671" y2="3136.021"/>
	
		<line fill="none" stroke="#000000" stroke-width="2" stroke-miterlimit="10" x1="-1948.967" y1="400.959" x2="-327.274" y2="3209.809"/>
	
		<line fill="none" stroke="#000000" stroke-width="2" stroke-miterlimit="10" x1="-1960.822" y1="280.425" x2="-194.52" y2="3339.746"/>
	
		<line fill="none" stroke="#000000" stroke-width="2" stroke-miterlimit="10" x1="-1980.594" y1="446.179" x2="-358.901" y2="3255.028"/>
</g>
</svg>
